HIERARCHY
ROOT Hips
{
  OFFSET 0.0 0.0 0.0
  CHANNELS 6 XPOSITION YPOSITION ZPOSITION ZROTATION XROTATION YROTATION 
  JOINT RightUpLeg
  {
    OFFSET -0.089458 -0.0866707 0.00101652
    CHANNELS 3 ZROTATION XROTATION YROTATION 
    JOINT RightLeg
    {
      OFFSET 0.0 -0.444227 0.013727
      CHANNELS 3 ZROTATION XROTATION YROTATION 
      JOINT RightFoot
      {
        OFFSET 0.00253549 -0.420924 -0.0146059
        CHANNELS 3 ZROTATION XROTATION YROTATION 
        End Site
        {
          OFFSET 0.0004 -0.0441509 0.084991
        }
      }
    }
  }
  JOINT Spine
  {
    OFFSET 0.0 0.118905 0.0
    CHANNELS 3 ZROTATION XROTATION YROTATION 
    JOINT Spine1
    {
      OFFSET 0.0 0.256574 0.00127663
      CHANNELS 3 ZROTATION XROTATION YROTATION 
      End Site
      {
        OFFSET -0.0029 0.2150836 0.02525291
      }
      JOINT RightArm
      {
        OFFSET -0.162727 -0.05365632 0.00102123
        CHANNELS 3 ZROTATION XROTATION YROTATION 
        JOINT RightForeArm
        {
          OFFSET -0.26364 0.00099144 -0.0142434
          CHANNELS 3 ZROTATION XROTATION YROTATION 
          End Site
          {
            OFFSET -0.220324 0.00085362 0.0102216
          }
        }
      }
      JOINT LeftArm
      {
        OFFSET 0.162727 -0.0536563199 0.00102123
        CHANNELS 3 ZROTATION XROTATION YROTATION 
        JOINT LeftForeArm
        {
          OFFSET 0.262597 0.00099144 -0.0142434
          CHANNELS 3 ZROTATION XROTATION YROTATION 
          End Site
          {
            OFFSET 0.220902 0.00085362 0.0102216
          }
        }
      }
    }
  }
  JOINT LeftUpLeg
  {
    OFFSET 0.089458 -0.0866707 0.00101652
    CHANNELS 3 ZROTATION XROTATION YROTATION 
    JOINT LeftLeg
    {
      OFFSET 0.0 -0.444227 0.013727
      CHANNELS 3 ZROTATION XROTATION YROTATION 
      JOINT LeftFoot
      {
        OFFSET -0.00253549 -0.420924 -0.0146059
        CHANNELS 3 ZROTATION XROTATION YROTATION 
        End Site
        {
          OFFSET -0.0004 -0.0441509 0.084991
        }
      }
    }
  }
}
MOTION
Frames: 9
Frame Time: 0.033333
-1.03638 0.985075152333 -1.08794 -0.37245392402 0.447141989233 90.004100618 2.92804041204 -3.44536982539 1.19160024541 -1.33389154867 13.4862341294 -14.1546902293 1.38763350478 -45.7925012714 1.92032049175 -5.10749764057 3.1935938981 -1.20748929313 3.15126358728 6.69361014605 -2.03085685819 81.4786038545 -21.20365975 13.4505942023 7.21767775446 62.0789541587 8.74288034046 -109.192055431 -57.2305477914 -39.0887457332 -173.388013062 63.5382035843 173.983455294 -0.738964089358 -7.93550673056 -0.367147000437 1.67061539244 18.3975021427 13.0673557031 -12.7645486577 -46.748755076 -9.69637901747 
-1.03524996287 0.983896902333 -1.08433512069 -0.418919407459 0.336191462541 90.3898628721 3.24176828953 -3.54562334203 1.21420774467 -1.18750437306 13.8280594841 -14.6072269741 1.26220679234 -46.1660443172 1.92608773273 -4.7566312498 3.71103259448 -1.28581043201 3.12583287201 6.18962073248 -2.08387299997 81.4640077402 -21.7048265879 13.1080789985 7.3622011422 62.2751991539 8.50596925269 -109.168457127 -56.9452542049 -39.1790715698 -173.343302644 63.60268057 173.998399748 -0.364276906923 -8.80613899124 -0.474434011094 1.73875794864 20.0567207241 12.7250274756 -13.445258117 -47.1398585381 -9.8890279181 
-1.0338136468 0.982604652333 -1.08069707252 -0.396014127954 0.232185530687 90.7229780281 3.60415037925 -3.60126078235 1.29573661787 -1.10115968289 14.2619822559 -15.0731978472 1.15793104134 -46.5849637246 1.93400328165 -4.43932670105 4.09948124739 -1.34382669915 3.21990805565 6.03816982537 -2.14789364372 81.2381402145 -21.6390023473 12.9434782696 7.56692496352 62.0542903456 8.30931017723 -109.707379543 -56.8541326512 -39.7767541033 -173.268102261 63.735008655 174.109868435 0.0345546640579 -9.86746330334 -0.723375623321 1.7918856146 22.2169012379 12.5093753517 -14.313637269 -47.2474442628 -10.01501588 
-1.03238512109 0.981054902333 -1.07741370975 -0.408255801298 0.139199175244 91.0248382385 3.92211062615 -3.8150900996 1.34027009159 -1.02435260485 14.9239223553 -15.4817558577 1.06095612222 -47.0981636483 1.94600328369 -4.13917702618 4.57171625774 -1.32029563024 3.45773972486 5.83351857481 -2.15534815487 80.8562848286 -21.3179219846 12.805295005 7.50423834109 61.6627839023 8.40573110397 -110.109151761 -56.6440804285 -40.1842841704 -173.124777572 64.171567026 173.881548871 0.293668145511 -11.2828279098 -1.15970550314 1.88305199143 24.8721902117 12.5139447482 -14.5256062135 -47.0498161542 -9.97431734404 
-1.0305096802 0.979199152333 -1.0744101822 -0.33413552224 0.0940122578606 91.3836349058 4.18774180562 -3.99226136468 1.30433667981 -0.953393235957 15.7654972837 -15.8662869702 1.01693373875 -47.7401843548 1.96773224988 -3.84539095319 5.07236314748 -1.29593202531 3.75799014502 5.73961713411 -2.17170069496 80.56568077 -21.2365522335 12.7670126485 7.33910485752 61.4691890205 8.54102007596 -110.576302549 -56.4948271348 -40.6078788423 -173.015139375 64.5560930159 173.715862142 0.32196046992 -12.8388525782 -1.90259316265 1.99342827531 27.8375885568 12.7430386845 -13.5913976983 -46.5936858762 -9.73582677502 
-1.02778398234 0.977291402333 -1.07158074585 -0.206105840723 0.0791515871657 91.725096553 4.43000861548 -4.04260455462 1.2403015219 -0.903189958175 16.5776323893 -16.1923055597 1.0129022196 -48.4152597618 1.99421865626 -3.52737862609 5.41280453515 -1.2800872671 3.98048611856 5.83051627979 -2.18131909541 80.4827691037 -21.674070246 12.850353763 7.33922780093 61.6561586188 8.40532641527 -110.949640689 -56.5472556668 -40.8613061813 -173.025534923 64.6195113223 173.813861697 0.210200125584 -14.352604352 -2.69666199093 2.00598344366 30.7203057545 12.8526154093 -11.7445819948 -46.0913288778 -9.40806648732 
-1.02445589747 0.975674652333 -1.06897356089 -0.234501204939 0.0471496529493 91.8647807517 4.64596212156 -4.15187306719 1.2415100385 -0.8821835513 17.2079751798 -16.3698170536 0.968923058417 -48.9929981429 2.01244821771 -3.1971172085 5.63536624926 -1.20468774163 4.05727238587 5.69367130533 -2.10253329022 80.4139754383 -22.1837321317 12.932685717 7.58370161566 61.8659820301 8.00431661758 -110.653169498 -56.8553484248 -40.3755670332 -173.164529273 64.3061080923 173.932461101 0.108411610642 -15.9356816922 -3.28921547926 1.77673870962 33.2713165227 12.3841054134 -10.3620296172 -45.9669989444 -9.23962206955 
-1.02029790839 0.974359402333 -1.06671864384 -0.241893764138 0.184816928153 91.9781755523 4.67103361157 -4.11198775065 1.14469605572 -0.907289672503 17.6982495736 -16.4246310292 0.949331941443 -49.5814462607 2.0335389881 -2.91723121079 5.8554417745 -1.0982145907 3.98364251973 5.40859884617 -1.95970442973 80.228269425 -22.3594302104 12.8176875295 7.51593930891 61.3263219536 8.06826170237 -109.797005285 -57.2502255664 -39.2388084043 -173.330407247 63.8639489662 173.942323894 -0.237103026765 -17.5142920886 -4.26719013916 1.22060186895 35.5123015894 11.5427746643 -11.3622442268 -46.5696299499 -9.50280633375 
-1.0153776884 0.973182152333 -1.06497260594 -0.0431472554772 0.377809032453 92.3129231235 4.55042826564 -3.71075725248 0.827188522289 -0.866385697276 18.0266758047 -16.4967407514 0.968142602583 -50.1789819451 2.0604247471 -2.54917366076 6.27331317481 -1.07588456787 3.77953981874 5.27215727976 -1.88457021442 80.4271713638 -23.1245684918 13.0318054222 7.51487977581 61.5085514007 7.8997430063 -109.147058144 -57.8069850215 -38.3749124177 -173.09006655 64.7035158189 173.682885989 -0.862812601205 -19.206507314 -5.42088166073 0.762984850813 37.8142802454 10.3879074964 -11.965891223 -46.4959561144 -9.54150789313 
